<svg xmlns="http://www.w3.org/2000/svg" viewBox="0 0 640 360" role="img" aria-labelledby="title desc">
  <title id="title">Bombeamento de água com energia solar</title>
  <desc id="desc">Painéis solares rurais alimentam uma bomba que leva água de um poço a uma caixa d'água.</desc>
  <defs>
    <linearGradient id="sky" x2="0" y2="1">
      <stop stop-color="#dff4ff"/>
      <stop offset="1" stop-color="#f7fbff"/>
    </linearGradient>
    <linearGradient id="panel" x2="1" y2="1">
      <stop stop-color="#2386b7"/>
      <stop offset="1" stop-color="#0c2340"/>
    </linearGradient>
  </defs>
  <rect width="640" height="360" fill="url(#sky)"/>
  <circle cx="520" cy="68" r="36" fill="#f4b400"/>
  <path d="M0 245c112-31 186-2 294 8 131 12 208-28 346-4v111H0z" fill="#b9d9a5"/>
  <path d="M0 277c97-20 172-1 267 10 123 15 254-19 373-6v79H0z" fill="#91bf83"/>
  <path d="m54 188 95-54 98 55-9 13H62z" fill="#0c2340"/>
  <path d="m79 179 69-39 72 41-5 16H78z" fill="url(#panel)" stroke="#fff" stroke-width="3"/>
  <path d="M111 160v35m33-54v54m34-36v36M79 178h139m-111-36 33 53" fill="none" stroke="#9ed7f1" stroke-width="3"/>
  <path d="M102 202v48m29-48v48m-46-3h66" fill="none" stroke="#506b52" stroke-width="6"/>
  <rect x="105" y="251" width="23" height="25" rx="4" fill="#f4b400" stroke="#0c2340" stroke-width="3"/>
  <path d="M117 276v37h187V177h76" fill="none" stroke="#1877a8" stroke-width="8" stroke-linejoin="round"/>
  <path d="M117 290v20m0-2 188 0" fill="none" stroke="#8ed8ee" stroke-width="4"/>
  <rect x="358" y="138" width="133" height="63" rx="8" fill="#fff" stroke="#0c2340" stroke-width="5"/>
  <path d="M358 160h133" stroke="#0c2340" stroke-width="5"/>
  <path d="M374 120v18m101-18v18" stroke="#0c2340" stroke-width="5"/>
  <path d="M386 175c5-8 11-8 16 0s11 8 16 0 11-8 16 0 11 8 16 0 11-8 16 0" fill="none" stroke="#27a9d7" stroke-width="5" stroke-linecap="round"/>
  <path d="M302 309c-10-14-10-25 0-37 10 12 10 23 0 37zm29 0c-10-14-10-25 0-37 10 12 10 23 0 37z" fill="#d7f5ff" stroke="#fff" stroke-width="2"/>
  <path d="M30 326h580" stroke="#77a96f" stroke-width="5" stroke-linecap="round"/>
</svg>
